<svg xmlns="http://www.w3.org/2000/svg" viewBox="0 0 247.17 21.32"><defs><style>.cls-1{fill:#ec1c24;fill-rule:evenodd;}.cls-2{fill:#231f20;}</style></defs><title>fip-fr-color</title><g id="Layer_2" data-name="Layer 2"><g id="Layer_1-2" data-name="Layer 1"><path class="cls-1" d="M21.07,1.76s-1.3,2.52-1.48,2.77-.35.35-.61.18-1.39-.78-1.39-.78,1,4.15,1,4.5a.36.36,0,0,1-.61.35C17.85,8.69,16,6.61,16,6.61s-.43,1-.52,1.13-.18.34-.44.26-2-.43-2-.43.61,2.07.7,2.33.17.44-.18.61l-.61.26L16.63,14c.18.18.35.26.18.79S16.46,16,16.46,16s3.31-.7,3.65-.79.64.09.64.43-.2,3.92-.2,3.92h1s-.2-3.56-.2-3.92.33-.46.64-.43,3.65.79,3.65.79-.17-.7-.35-1.22,0-.61.18-.79l3.66-3.21-.61-.26c-.35-.17-.26-.4-.18-.61s.7-2.33.7-2.33-1.66.34-2,.43-.35-.09-.44-.26-.52-1.13-.52-1.13S24.29,8.69,24.2,8.78a.36.36,0,0,1-.61-.35c0-.35,1-4.5,1-4.5s-1,.6-1.39.78-.44.17-.61-.18-1.48-2.77-1.48-2.77Z"/><polygon class="cls-1" points="10.53 21.12 10.53 0.2 0 0.2 0 21.12 10.53 21.12 10.53 21.12"/><polygon class="cls-1" points="42.14 21.12 42.14 0.2 31.6 0.2 31.6 21.12 42.14 21.12 42.14 21.12"/><path class="cls-2" d="M63,.2h1.26l3.34,8.57H66.3l-.93-2.58H61.75l-1,2.58H59.61Zm-.85,5H65l-1.43-4h0Z"/><path class="cls-2" d="M68.66,3.47h-1v-.9h1V1.64c0-1,.6-1.53,1.71-1.53A2.44,2.44,0,0,1,71,.2v.89A1.87,1.87,0,0,0,70.46,1c-.49,0-.78.15-.78.69v.87h1.2v.9h-1.2v5.3h-1Z"/><path class="cls-2" d="M72,3.47H71v-.9h1V1.64c0-1,.6-1.53,1.71-1.53a2.5,2.5,0,0,1,.66.09v.89A1.93,1.93,0,0,0,73.79,1c-.49,0-.77.15-.77.69v.87h1.19v.9H73v5.3H72Z"/><path class="cls-2" d="M80.62,8.74a1.36,1.36,0,0,1-.73.17c-.53,0-.86-.29-.86-1a2.77,2.77,0,0,1-2.19,1c-1.12,0-2-.5-2-1.74,0-1.4,1-1.7,2.1-1.9S79,5.12,79,4.35s-.73-1-1.38-1c-.87,0-1.5.27-1.55,1.18H75c.06-1.54,1.25-2.08,2.63-2.08,1.11,0,2.32.25,2.32,1.71V7.32c0,.48,0,.69.33.69A.83.83,0,0,0,80.62,8ZM79,5.56A5.26,5.26,0,0,1,77.12,6c-.67.12-1.25.36-1.25,1.12s.58.91,1.2.91c1.34,0,1.9-.84,1.9-1.4Z"/><path class="cls-2" d="M82.65,1.45h-1V.2h1Zm-1,1.12h1v6.2h-1Z"/><path class="cls-2" d="M84.2,2.57h1v1.3h0a2.27,2.27,0,0,1,2.28-1.45V3.5c-1.64,0-2.24.94-2.24,2.51V8.77h-1Z"/><path class="cls-2" d="M93.3,6.8a2.49,2.49,0,0,1-2.65,2.11c-2,0-2.91-1.37-3-3.26a3,3,0,0,1,2.91-3.23c2.2,0,2.87,2.05,2.81,3.55H88.76a1.82,1.82,0,0,0,1.93,2A1.5,1.5,0,0,0,92.3,6.8Zm-1-1.73a1.78,1.78,0,0,0-3.56,0Z"/><path class="cls-2" d="M95.08,6.81c0,.91.83,1.2,1.67,1.2.64,0,1.5-.14,1.5-.92s-1-.93-2-1.15-2-.57-2-1.75,1.23-1.77,2.31-1.77c1.37,0,2.46.43,2.54,2H98c-.07-.8-.76-1.05-1.44-1.05s-1.32.17-1.32.79,1.08.86,2,1.08,2,.57,2,1.77c0,1.47-1.38,2-2.64,2s-2.57-.56-2.63-2.1Z"/><path class="cls-2" d="M103.79,2.57h1v.91h0a2.27,2.27,0,0,1,2-1.06,1.63,1.63,0,0,1,1.7,1.06,2.31,2.31,0,0,1,2-1.06c1.23,0,2.06.52,2.06,1.8V8.77h-1V4.7c0-.77-.2-1.38-1.2-1.38a1.51,1.51,0,0,0-1.62,1.59V8.77h-1V4.7c0-.8-.25-1.38-1.16-1.38a1.68,1.68,0,0,0-1.66,1.59V8.77h-1Z"/><path class="cls-2" d="M116.71,2.42a3,3,0,0,1,3,3.25,3,3,0,1,1-6,0A3,3,0,0,1,116.71,2.42Zm0,5.59c1.06,0,1.93-.84,1.93-2.34s-.87-2.35-1.93-2.35-1.94.84-1.94,2.35S115.64,8,116.71,8Z"/><path class="cls-2" d="M120.92,2.57h1v1h0a2.16,2.16,0,0,1,2-1.13c1.63,0,2.13.94,2.13,2.27V8.77h-1V4.57a1.17,1.17,0,0,0-1.26-1.25,1.74,1.74,0,0,0-1.83,1.95v3.5h-1Z"/><path class="cls-2" d="M133.13,8.77h-1V7.93h0a2.1,2.1,0,0,1-2,1c-1.91,0-2.86-1.51-2.86-3.26s.94-3.23,2.83-3.23a2.39,2.39,0,0,1,2,1h0V.2h1ZM130.25,8c1.37,0,1.9-1.17,1.9-2.34s-.55-2.35-2-2.35-1.86,1.19-1.86,2.4S128.93,8,130.25,8Z"/><path class="cls-2" d="M135.79,1.45h-1V.2h1Zm-1,1.12h1v6.2h-1Z"/><path class="cls-2" d="M142.86,8.74a1.36,1.36,0,0,1-.73.17c-.53,0-.86-.29-.86-1a2.77,2.77,0,0,1-2.19,1c-1.12,0-2.05-.5-2.05-1.74,0-1.4,1.05-1.7,2.1-1.9s2.09-.15,2.09-.92-.73-1-1.38-1c-.86,0-1.5.27-1.55,1.18h-1c.06-1.54,1.25-2.08,2.63-2.08,1.12,0,2.33.25,2.33,1.71V7.32c0,.48,0,.69.32.69a.8.8,0,0,0,.31-.06Zm-1.65-3.18a5.26,5.26,0,0,1-1.85.42c-.67.12-1.25.36-1.25,1.12s.58.91,1.2.91c1.35,0,1.9-.84,1.9-1.4Z"/><path class="cls-2" d="M143.87.2h1V8.77h-1Z"/><path class="cls-2" d="M151.77,6.8a2.5,2.5,0,0,1-2.65,2.11c-2,0-2.92-1.37-3-3.26a3,3,0,0,1,2.92-3.23c2.19,0,2.86,2.05,2.8,3.55h-4.64a1.83,1.83,0,0,0,1.93,2,1.5,1.5,0,0,0,1.61-1.21Zm-1-1.73a1.78,1.78,0,0,0-3.56,0Z"/><path class="cls-2" d="M153.54,6.81c0,.91.83,1.2,1.67,1.2.64,0,1.5-.14,1.5-.92s-1-.93-2-1.15-2-.57-2-1.75,1.23-1.77,2.31-1.77c1.37,0,2.46.43,2.54,2h-1c-.07-.8-.76-1.05-1.43-1.05s-1.32.17-1.32.79,1.08.86,2,1.08,2,.57,2,1.77c0,1.47-1.38,2-2.64,2s-2.57-.56-2.63-2.1Z"/><path class="cls-2" d="M66.65,15.13a2.25,2.25,0,0,0-2.4-1.82c-2,0-2.9,1.68-2.9,3.47,0,1.95.86,3.58,2.92,3.58a2.42,2.42,0,0,0,2.47-2.47h1.14a3.49,3.49,0,0,1-3.71,3.43c-2.66,0-4-2-4-4.46s1.42-4.51,4.06-4.51a3.27,3.27,0,0,1,3.52,2.78Z"/><path class="cls-2" d="M74.62,21.09a1.36,1.36,0,0,1-.73.17c-.53,0-.86-.29-.86-1a2.77,2.77,0,0,1-2.19,1c-1.12,0-2-.5-2-1.74,0-1.4,1-1.7,2.1-1.9S73,17.47,73,16.7s-.73-1-1.38-1c-.87,0-1.5.27-1.55,1.18H69c.06-1.54,1.25-2.08,2.63-2.08,1.11,0,2.32.25,2.32,1.71v3.19c0,.48,0,.69.33.69a.83.83,0,0,0,.31-.06ZM73,17.92a5.51,5.51,0,0,1-1.85.41c-.67.13-1.25.36-1.25,1.12s.58.91,1.2.91c1.34,0,1.9-.84,1.9-1.4Z"/><path class="cls-2" d="M75.57,14.92h1v1h0a2.17,2.17,0,0,1,2-1.13c1.63,0,2.13.94,2.13,2.27v4.08h-1v-4.2a1.17,1.17,0,0,0-1.26-1.25,1.75,1.75,0,0,0-1.84,2v3.5h-1Z"/><path class="cls-2" d="M87.74,21.09a1.37,1.37,0,0,1-.74.17c-.52,0-.86-.29-.86-1a2.74,2.74,0,0,1-2.18,1c-1.13,0-2-.5-2-1.74,0-1.4,1-1.7,2.1-1.9s2.08-.15,2.08-.92-.73-1-1.38-1c-.86,0-1.5.27-1.54,1.18h-1c.06-1.54,1.24-2.08,2.62-2.08,1.12,0,2.33.25,2.33,1.71v3.19c0,.48,0,.69.32.69a.88.88,0,0,0,.32-.06Zm-1.66-3.17a5.4,5.4,0,0,1-1.85.41c-.67.13-1.24.36-1.24,1.12s.57.91,1.2.91c1.34,0,1.89-.84,1.89-1.4Z"/><path class="cls-2" d="M94.23,21.12h-1v-.84h0a2.07,2.07,0,0,1-2,1c-1.91,0-2.86-1.51-2.86-3.26s.94-3.23,2.83-3.23a2.36,2.36,0,0,1,2,1h0V12.55h1Zm-2.88-.76c1.37,0,1.89-1.17,1.89-2.34s-.55-2.35-1.95-2.35-1.86,1.19-1.86,2.4S90,20.36,91.35,20.36Z"/><path class="cls-2" d="M101.3,21.09a1.37,1.37,0,0,1-.74.17c-.52,0-.86-.29-.86-1a2.74,2.74,0,0,1-2.18,1c-1.13,0-2-.5-2-1.74,0-1.4,1-1.7,2.1-1.9s2.08-.15,2.08-.92-.73-1-1.38-1c-.86,0-1.5.27-1.54,1.18h-1c.06-1.54,1.24-2.08,2.62-2.08,1.12,0,2.33.25,2.33,1.71v3.19c0,.48,0,.69.32.69a.88.88,0,0,0,.32-.06Zm-1.66-3.17a5.46,5.46,0,0,1-1.85.41c-.67.13-1.24.36-1.24,1.12s.57.91,1.2.91c1.34,0,1.89-.84,1.89-1.4Z"/><path class="cls-2" d="M182.89,7.7A3.35,3.35,0,0,1,180.14,9a4.1,4.1,0,0,1-4.08-4.32c0-2.49,1.37-4.65,4.08-4.65,1.87,0,3.36.84,3.68,2.84h-1.14A2.32,2.32,0,0,0,180.14,1c-2.08,0-2.94,1.8-2.94,3.63s1,3.42,2.94,3.42a2.58,2.58,0,0,0,2.75-2.79h-2.74v-1h3.75V8.77h-.72Z"/><path class="cls-2" d="M185.48.2h1V8.77h-1Z"/><path class="cls-2" d="M190.76,2.42a2.94,2.94,0,0,1,3,3.25,3,3,0,1,1-6,0A2.94,2.94,0,0,1,190.76,2.42Zm0,5.59c1.07,0,1.93-.84,1.93-2.34s-.86-2.35-1.93-2.35-1.93.84-1.93,2.35S189.69,8,190.76,8Z"/><path class="cls-2" d="M195,.2h1V3.41h0a2.09,2.09,0,0,1,2-1c1.91,0,2.86,1.51,2.86,3.26s-.94,3.23-2.84,3.23a2.38,2.38,0,0,1-2-1h0v.83h-1Zm2.88,3.12c-1.37,0-1.9,1.18-1.9,2.34S196.54,8,198,8s1.86-1.19,1.86-2.4S199.21,3.32,197.89,3.32Z"/><path class="cls-2" d="M207.58,8.74a1.36,1.36,0,0,1-.73.17c-.53,0-.87-.29-.87-1a2.73,2.73,0,0,1-2.18,1c-1.12,0-2.05-.5-2.05-1.74,0-1.4,1.05-1.7,2.1-1.9s2.09-.15,2.09-.92-.73-1-1.38-1c-.86,0-1.5.27-1.55,1.18h-1c.06-1.54,1.25-2.08,2.63-2.08,1.11,0,2.33.25,2.33,1.71V7.32c0,.48,0,.69.32.69a.83.83,0,0,0,.31-.06Zm-1.65-3.18a5.26,5.26,0,0,1-1.85.42c-.67.12-1.25.36-1.25,1.12s.58.91,1.2.91c1.34,0,1.9-.84,1.9-1.4Z"/><path class="cls-2" d="M208.59.2h1V8.77h-1Z"/><path class="cls-2" d="M217,.2h1.26l3.34,8.57h-1.26l-.93-2.58h-3.63l-.95,2.58h-1.18Zm-.86,5h2.91l-1.43-4h0Z"/><path class="cls-2" d="M222.73,3.47h-1v-.9h1V1.64c0-1,.6-1.53,1.71-1.53a2.44,2.44,0,0,1,.66.09v.89a1.87,1.87,0,0,0-.57-.08c-.49,0-.78.15-.78.69v.87H225v.9h-1.2v5.3h-1Z"/><path class="cls-2" d="M226.06,3.47h-1v-.9h1V1.64c0-1,.6-1.53,1.72-1.53a2.5,2.5,0,0,1,.66.09v.89a1.93,1.93,0,0,0-.58-.08c-.49,0-.78.15-.78.69v.87h1.2v.9h-1.2v5.3h-1Z"/><path class="cls-2" d="M234.69,8.74a1.36,1.36,0,0,1-.73.17c-.53,0-.87-.29-.87-1a2.74,2.74,0,0,1-2.18,1c-1.13,0-2-.5-2-1.74,0-1.4,1-1.7,2.1-1.9s2.09-.15,2.09-.92-.74-1-1.38-1c-.87,0-1.5.27-1.55,1.18h-1c.06-1.54,1.25-2.08,2.63-2.08,1.11,0,2.32.25,2.32,1.71V7.32c0,.48,0,.69.33.69a.83.83,0,0,0,.31-.06ZM233,5.56a5.15,5.15,0,0,1-1.84.42c-.68.12-1.25.36-1.25,1.12s.57.91,1.2.91c1.34,0,1.89-.84,1.89-1.4Z"/><path class="cls-2" d="M236.72,1.45h-1V.2h1Zm-1,1.12h1v6.2h-1Z"/><path class="cls-2" d="M238.27,2.57h1v1.3h0a2.27,2.27,0,0,1,2.28-1.45V3.5c-1.64,0-2.24.94-2.24,2.51V8.77h-1Z"/><path class="cls-2" d="M242.92,6.81c0,.91.83,1.2,1.67,1.2.64,0,1.5-.14,1.5-.92s-1-.93-2-1.15-2-.57-2-1.75,1.23-1.77,2.31-1.77c1.37,0,2.46.43,2.54,2h-1c-.07-.8-.76-1.05-1.44-1.05s-1.31.17-1.31.79,1.07.86,2,1.08,2,.57,2,1.77c0,1.47-1.38,2-2.64,2s-2.57-.56-2.63-2.1Z"/><path class="cls-2" d="M182.5,15.13a2.25,2.25,0,0,0-2.4-1.82c-2,0-2.9,1.68-2.9,3.47,0,1.95.86,3.58,2.91,3.58a2.41,2.41,0,0,0,2.47-2.47h1.15A3.49,3.49,0,0,1,180,21.32c-2.66,0-4-2-4-4.46s1.42-4.51,4.05-4.51a3.28,3.28,0,0,1,3.53,2.78Z"/><path class="cls-2" d="M190.47,21.09a1.36,1.36,0,0,1-.73.17c-.53,0-.87-.29-.87-1a2.73,2.73,0,0,1-2.18,1c-1.13,0-2.05-.5-2.05-1.74,0-1.4,1-1.7,2.1-1.9s2.09-.15,2.09-.92-.74-1-1.38-1c-.87,0-1.5.27-1.55,1.18h-1c.06-1.54,1.25-2.08,2.63-2.08,1.11,0,2.32.25,2.32,1.71v3.19c0,.48,0,.69.33.69a.83.83,0,0,0,.31-.06Zm-1.66-3.17a5.39,5.39,0,0,1-1.84.41c-.67.13-1.25.36-1.25,1.12s.58.91,1.2.91c1.34,0,1.89-.84,1.89-1.4Z"/><path class="cls-2" d="M191.42,14.92h1v1h0a2.16,2.16,0,0,1,2-1.13c1.63,0,2.13.94,2.13,2.27v4.08h-1v-4.2a1.17,1.17,0,0,0-1.26-1.25,1.74,1.74,0,0,0-1.83,2v3.5h-1Z"/><path class="cls-2" d="M203.58,21.09a1.33,1.33,0,0,1-.73.17c-.53,0-.86-.29-.86-1a2.74,2.74,0,0,1-2.18,1c-1.13,0-2.05-.5-2.05-1.74,0-1.4,1-1.7,2.09-1.9s2.09-.15,2.09-.92-.73-1-1.38-1c-.86,0-1.5.27-1.54,1.18h-1c.06-1.54,1.24-2.08,2.62-2.08,1.12,0,2.33.25,2.33,1.71v3.19c0,.48,0,.69.32.69a.8.8,0,0,0,.31-.06Zm-1.65-3.17a5.46,5.46,0,0,1-1.85.41c-.67.13-1.25.36-1.25,1.12s.58.91,1.21.91c1.34,0,1.89-.84,1.89-1.4Z"/><path class="cls-2" d="M210.08,21.12h-1v-.84h0a2.09,2.09,0,0,1-2,1c-1.9,0-2.85-1.51-2.85-3.26s.94-3.23,2.83-3.23a2.37,2.37,0,0,1,2,1h0V12.55h1Zm-2.88-.76c1.36,0,1.89-1.17,1.89-2.34s-.55-2.35-2-2.35-1.86,1.19-1.86,2.4S205.88,20.36,207.2,20.36Z"/><path class="cls-2" d="M217.15,21.09a1.37,1.37,0,0,1-.74.17c-.52,0-.86-.29-.86-1a2.76,2.76,0,0,1-2.18,1c-1.13,0-2.06-.5-2.06-1.74,0-1.4,1.05-1.7,2.1-1.9s2.09-.15,2.09-.92-.73-1-1.38-1c-.86,0-1.5.27-1.55,1.18h-1c.06-1.54,1.24-2.08,2.62-2.08,1.12,0,2.33.25,2.33,1.71v3.19c0,.48,0,.69.32.69a.88.88,0,0,0,.32-.06Zm-1.66-3.17a5.46,5.46,0,0,1-1.85.41c-.67.13-1.24.36-1.24,1.12s.57.91,1.19.91c1.35,0,1.9-.84,1.9-1.4Z"/></g></g></svg>