<svg xmlns="http://www.w3.org/2000/svg" viewBox="0 0 480.85 564.75"><defs><style>.cls-1,.cls-2{fill:none;stroke:aqua;stroke-linejoin:round;stroke-width:5px;}.cls-2{stroke-dasharray:12.09 12.09;}</style></defs><title>head-outline</title><g id="Layer_2" data-name="Layer 2"><g id="Layer_2-2" data-name="Layer 2"><path class="cls-1" d="M118.5,389.11c0,63,16.65,105.3-41.15,134.66S1.13,562.52,1.13,562.52"/><path class="cls-2" d="M240.42,463.09c-41.11,0-68.91-21.74-90.14-70.48C128.75,343.16,119,276,110.45,216.75l-.09-.6c-10.2-61.45-1.89-108.53,24.71-139.91,37-43.68,98.47-44.94,105.35-44.94s68.33,1.26,105.35,44.94c26.61,31.38,34.92,78.46,24.71,139.91l-.09.6C361.82,276,352.1,343.16,330.56,392.61,309.34,441.35,281.54,463.09,240.42,463.09Z"/><path class="cls-1" d="M420.4,237.28l-16.93,96.08a17.53,17.53,0,0,1-20.3,14.22,17.33,17.33,0,0,1-6.64-2.65c-20.64,81.6-56.6,147-136.11,147S125,426.53,104.31,344.93a17.33,17.33,0,0,1-6.64,2.65,17.53,17.53,0,0,1-20.3-14.22L60.44,237.28a17.52,17.52,0,0,1,20.9-20.18C51.39,25,198.37,2.5,240.42,2.5S429.45,25,399.5,217.1a17.52,17.52,0,0,1,20.9,20.18Z"/><path class="cls-1" d="M362.35,389.11c0,63-16.65,105.3,41.15,134.66s76.21,38.75,76.21,38.75"/></g></g></svg>